<?xml version="1.0" encoding="UTF-8" standalone="no"?>
<svg width="300px" height="194px" viewBox="0 0 300 194" version="1.1" xmlns="http://www.w3.org/2000/svg" xmlns:xlink="http://www.w3.org/1999/xlink" xmlns:sketch="http://www.bohemiancoding.com/sketch/ns">
    <!-- Generator: Sketch 3.3.3 (12072) - http://www.bohemiancoding.com/sketch -->
    <title>Group@1x</title>
    <desc>Created with Sketch.</desc>
    <defs></defs>
    <g id="let-barrage-fly" stroke="none" stroke-width="1" fill="none" fill-rule="evenodd" sketch:type="MSPage">
        <g id="Artboard" sketch:type="MSArtboardGroup" transform="translate(0.000000, -53.000000)">
            <g id="Group" sketch:type="MSLayerGroup" transform="translate(0.000000, 53.000000)">
                <g id="hand" transform="translate(0.000000, 76.265356)" fill="#6AC1E6" sketch:type="MSShapeGroup">
                    <path d="M121.404404,32.9357385 C121.404404,32.9357385 94.2948801,37.0826672 89.0234516,25.399768 C83.752023,13.7121021 79.289642,0.0034043218 61.2186897,0.0034043218 C43.0805944,0.0034043218 42.6282135,23.1213404 30.3424992,29.6181955 C18.0563087,36.1150505 13.8377373,27.2063036 13.8377373,27.2063036 C13.8377373,27.2063036 13.6234516,26.9822741 13.2758325,26.6676795 C14.1663087,25.7524952 15.4044039,25.9002594 15.8758325,25.3473355 C16.4567849,24.6704805 16.2377373,23.7743626 14.6424992,23.9936255 C13.599642,24.1318564 12.799642,25.1900382 12.3615468,25.9097925 C11.7424992,25.4331341 10.9901182,24.9564756 10.2377373,24.69908 C10.0853563,23.8077286 9.81345156,22.2252225 9.67583252,21.4435026 C9.47583252,20.313822 8.9567849,19.7227655 8.23297537,19.8609965 C7.50916585,19.9944608 7.41345156,20.8143134 7.93297537,21.691365 C8.33297537,22.3729866 8.68535633,23.5074338 8.98535633,24.5322495 L8.94726109,24.5370161 C8.59488014,24.5799154 8.11392776,24.7467458 7.62345156,25.0232078 C6.96630871,23.9554928 5.95202299,22.3157876 5.42345156,21.4721021 C4.59964204,20.1612913 3.65202299,19.6798662 2.81392776,20.2184903 C1.97583252,20.7523478 2.27583252,21.829596 3.3615468,22.6637483 C4.30916585,23.3882692 5.91345156,24.7038466 6.53726109,25.8287606 C6.23773728,26.1195223 5.97107061,26.4579498 5.7615468,26.8392766 C4.79964204,26.3721513 3.31868966,25.6571635 2.5567849,25.2901365 C1.3615468,24.7181463 0.456784898,24.8087114 0.0948801363,25.5808982 C-0.267024626,26.3530849 0.442499184,26.9965739 1.60916585,27.1014387 C2.63773728,27.1920038 4.41868966,27.4065001 5.38059442,27.9403576 C5.29011823,28.4503822 5.30916585,29.0176058 5.47583252,29.6372618 C4.64249918,29.7516599 3.29011823,29.3846328 2.52821347,29.1510702 C1.66630871,28.8841414 0.980594422,29.1367704 1.01392776,29.7897925 C1.04726109,30.4428146 1.6615468,30.7621758 2.67583252,30.7049768 C3.44249918,30.6620775 5.06630871,30.5572127 5.79964204,30.5095468 C6.58535633,32.1826181 8.42821347,34.1798171 11.999642,36.4868441 C22.1377373,43.0170653 36.2948801,37.5974584 41.152023,30.094854 C46.0139278,22.5874829 50.7329754,6.60989081 63.2282135,9.38880973 C75.7182135,12.1677286 77.6044039,22.6732815 81.2091659,28.9508736 C84.0615468,33.9271881 90.2948801,46.0724461 121.947261,42.7358368 L121.404404,32.9357385" id="Fill-60"></path>
                    <path d="M297.971429,40.4066527 C299.142857,40.4209524 299.914286,39.8537288 299.633333,39.048176 C299.352381,38.2426232 298.461905,38.061493 297.214286,38.5095519 C296.419048,38.7907804 294.87619,39.3532374 293.866667,39.7202645 C293.7,39.3151048 293.466667,38.9528443 293.2,38.6334831 C293.933333,37.5800679 295.666667,36.4360876 296.685238,35.8116649 C297.852381,35.0966772 298.257143,34.0527952 297.47619,33.4331391 C296.7,32.8134831 295.709524,33.1948099 294.757143,34.4150556 C294.142857,35.2015421 292.966667,36.7268492 292.204286,37.7182989 C291.742857,37.3941711 291.280952,37.1844414 290.932857,37.0986428 L290.895238,37.0938762 C291.3,36.1071932 291.766667,35.0108787 292.238095,34.3721563 C292.842857,33.5570704 292.833333,32.7324512 292.12381,32.5227215 C291.419048,32.3129917 290.842857,32.8468492 290.528571,33.9479303 C290.309524,34.7153505 289.87619,36.2597239 289.633333,37.1320089 C288.861905,37.3083726 288.061905,37.7087657 287.395238,38.1139254 C287.038095,37.3560384 286.347619,36.2215912 285.328571,35.9737288 C283.761905,35.592402 283.452381,36.4646871 283.961905,37.1987411 C284.37619,37.7945642 285.62381,37.7754979 286.414286,38.7764807 C286.032857,39.0529426 285.795238,39.2531391 285.795238,39.2531391 C285.795238,39.2531391 280.685714,47.680461 269.133333,39.9538271 C257.580952,32.2319598 259.5,9.19028903 241.457143,7.32655438 C223.480952,5.46758632 217.638095,18.6424266 211.195238,29.7247362 C204.752381,40.8022792 178.209524,33.8907313 178.209524,33.8907313 L176.666667,43.5859647 C207.804762,50.1590851 215.252381,38.7192817 218.604762,34.0623283 C222.833333,28.1898959 225.785714,17.9322055 238.5,16.4497976 C251.209524,14.9721563 254.266667,31.3501416 258.328571,39.3151048 C262.390476,47.2800679 275.919048,54.1248836 286.671429,48.6719106 C290.461905,46.7462104 292.5,44.9492079 293.452381,43.3667018 C294.17619,43.4858664 295.780952,43.7575618 296.542857,43.881493 C297.542857,44.0435568 298.190476,43.7861613 298.290476,43.1426723 C298.390476,42.4944168 297.728571,42.1750556 296.847143,42.3514192 C296.061905,42.50395 294.680952,42.732746 293.861905,42.5325495 C294.095238,41.9319598 294.171429,41.3695028 294.133333,40.8547116 C295.147619,40.4209524 296.942857,40.3875863 297.971429,40.4066527" id="Fill-61"></path>
                </g>
                <path d="M195.642775,167.574054 C199.68087,183.794742 189.061822,189.090418 181.347536,184.962555 C174.395155,181.244619 180.642775,163.722654 170.88087,154.947371 C169.161822,156.105651 167.361822,157.144767 165.495155,158.074251 C165.952298,160.571941 166.48087,163.508157 166.942775,166.820934 C167.185632,168.551204 167.404679,170.381572 167.571346,172.29774 C167.65706,173.26059 167.733251,174.242506 167.790394,175.243489 C167.847536,176.244472 167.890394,177.269287 167.914203,178.308403 C168.104679,186.649926 165.571346,191.297346 162.209441,193.075283 C161.361822,193.518575 160.447536,193.785504 159.476108,193.885602 C159.228489,193.909435 158.985632,193.928501 158.733251,193.933268 C158.485632,193.938034 158.233251,193.933268 157.976108,193.914201 C157.466584,193.885602 156.942775,193.81887 156.414203,193.709238 C154.304679,193.280246 152.066584,192.245897 150.247536,190.701523 C144.761822,185.744275 149.699917,173.541818 148.371346,162.907568 C146.952298,163.031499 145.518965,163.102998 144.071346,163.102998 C142.442775,163.102998 140.838013,163.017199 139.25706,162.859902 C137.176108,173.432187 141.438013,186.054103 135.618965,190.69199 C133.704679,192.121966 131.409441,193.013317 129.276108,193.313612 C128.742775,193.385111 128.218965,193.423243 127.704679,193.418477 C127.447536,193.418477 127.195155,193.408943 126.947536,193.385111 C126.699917,193.366044 126.452298,193.337445 126.214203,193.294545 C125.247536,193.132482 124.352298,192.81312 123.533251,192.312629 C120.290394,190.334496 118.047536,185.534545 118.75706,177.226388 C118.842775,176.187273 118.952298,175.17199 119.071346,174.171007 C119.190394,173.174791 119.323727,172.202408 119.466584,171.249091 C119.75706,169.342457 120.090394,167.531155 120.438013,165.819951 C121.038013,162.850369 121.68087,160.185848 122.252298,157.878821 C120.828489,157.159066 119.447536,156.367813 118.114203,155.509828 C108.952298,164.947666 116.452298,182.016806 109.771346,186.2257 C102.366584,190.892187 91.3999174,186.363931 94.2808697,169.900147 C96.6951555,156.077052 103.361822,146.801278 105.438013,143.693464 C99.4475364,135.657002 95.9046793,125.685307 95.9046793,114.888993 L95.9046793,48.2140049 C95.9046793,21.5878624 117.466584,0 144.071346,0 C170.671346,0 192.238013,21.5878624 192.238013,48.2140049 L192.238013,114.888993 C192.238013,125.365946 188.899917,135.061179 183.228489,142.968943 C185.990394,146.49145 192.495155,154.952138 195.642775,167.574054" id="Fill-24" fill="#6AC1E7" sketch:type="MSShapeGroup"></path>
                <g id="mouse" transform="translate(101.428571, 85.321867)" sketch:type="MSShapeGroup">
                    <path d="M20.7677677,45.0682457 C24.1439581,39.758747 33.6201486,32.1036118 42.3344343,31.1216954 C51.0487201,30.1397789 59.7915772,37.0322605 66.1725296,41.6939804 C75.1201486,48.2337347 91.6772915,39.8445455 85.4106248,22.7749288 C78.5772915,4.15712533 61.6106248,-2.44459457 39.5058629,0.7871499 C17.401101,4.02366096 -1.698899,15.8972236 0.120148623,35.525543 C1.47252958,50.1308354 15.4201486,53.4626782 20.7677677,45.0682457" id="Fill-170" fill="#575D6B"></path>
                    <path d="M83.1807454,29.4312095 C82.2331263,13.3678189 63.047412,2.41420708 42.6236025,3.95810389 C22.3426501,5.49342084 8.4093168,13.4154847 4.51884061,27.8391702 C0.628364415,42.2628557 13.6807454,47.367868 20.8521739,40.3466887 C25.7331263,35.5705707 35.999793,27.85347 44.0378882,27.6151407 C52.0712216,27.3768115 62.747412,32.7535191 66.9521739,36.1568606 C73.2664597,41.2618729 83.8902692,41.3810375 83.1807454,29.4312095" id="Fill-171" fill="#FFFFFF"></path>
                    <path d="M81.7115736,36.5930713 L80.592526,30.6253071 L77.092526,32.3455676 L74.2687165,25.7109582 L64.440145,27.5413268 L57.7782403,17.1311057 L51.4544308,23.0798034 L47.840145,15.4151351 L42.3068117,20.5630467 L31.2353831,12.2119902 L30.7877641,25.5965602 L24.9115736,20.9057641 L22.6544308,26.9693366 L13.5068117,21.2494349 L15.992526,32.4556757 L9.892526,31.0828993 L11.0210974,37.1459951 L9.20681171,37.5940541 L9.52109743,42.8563636 C6.292526,41.302457 3.24966886,37.7227518 3.8972879,32.0457494 L8.80681171,36.7360688 L10.0020498,36.4596069 L8.53538314,29.8292875 L15.1972879,31.7502211 L12.2020498,19.4953317 L22.5020498,25.9254545 L24.5020498,20.1435872 L30.2115736,24.3095823 L30.7687165,10.963145 L42.3877641,19.8194595 L47.940145,14.1948894 L51.6544308,21.9644226 L57.8830022,16.1777887 L64.592526,26.735774 L74.4972879,25.0341032 L77.292526,31.5881572 L80.692526,29.8431106 L81.9972879,23.8138575 C82.7306212,25.7395577 83.2687165,28.7377396 83.2734784,30.9155921 C83.2830022,34.4671744 82.4639546,35.4204914 81.7115736,36.5930713" id="Fill-172" fill="#0A0B09"></path>
                    <path d="M14.1,50.301769 C11.3904762,50.301769 9.1952381,49.0529238 9.04761905,48.9671253 C10.1714286,49.3532187 11.3285714,49.5486486 12.4666667,49.5486486 C15.6380952,49.5486486 18.6809524,48.0466978 20.6095238,45.0199165 C23.9857143,39.7104177 33.4619048,32.0552826 42.1761905,31.0733661 C42.7428571,31.0114005 43.3095238,30.982801 43.8761905,30.982801 C52.0190476,30.982801 60.047619,37.2889926 66.0142857,41.6456511 C68.0714286,43.1471253 70.5333333,43.862113 73.0285714,43.862113 C74.3809524,43.862113 75.747619,43.6523833 77.0619048,43.242457 C75.6238095,44.0909091 74.1190476,44.4102703 72.6380952,44.4102703 C68.8904762,44.4102703 65.3238095,42.3749386 63.5285714,41.7981818 C61.7714286,41.2309582 52.7095238,32.9704668 43.9142857,32.9704668 L43.7285714,32.9704668 C34.8714286,33.0896314 26.6190476,40.5684029 24.2047619,43.4474201 C21.7904762,46.3312039 19.8666667,48.638231 16.9809524,49.7726781 C16,50.1540049 15.0190476,50.301769 14.1,50.301769" id="Fill-173" fill="#BDBCB8"></path>
                    <path d="M12.4761905,49.4580835 C11.3380952,49.4580835 10.1809524,49.2626536 9.05714286,48.8765602 C9.05238095,48.8717936 9.04761905,48.8717936 9.04761905,48.8717936 C9.63809524,48.924226 10.1952381,48.948059 10.7095238,48.948059 C16.7142857,48.948059 17.8714286,45.6686486 19.8285714,43.747715 C21.8285714,41.7791155 27.3,33.3946929 40.8428571,29.8197543 C42.8047619,29.3049631 44.6428571,29.0761671 46.3619048,29.0761671 C56.5142857,29.0761671 62.5285714,36.9791646 65.4238095,39.6818182 C68.7333333,42.7705651 72.5619048,43.3282555 74.9,43.3282555 C76.2285714,43.3282555 77.0761905,43.1471253 77.0761905,43.1471253 C77.0761905,43.1518919 77.0714286,43.1518919 77.0714286,43.1518919 C75.7571429,43.5618182 74.3904762,43.7715479 73.0380952,43.7715479 C70.5428571,43.7715479 68.0809524,43.0565602 66.0238095,41.555086 C60.0571429,37.1984275 52.0285714,30.8922359 43.8857143,30.8922359 C43.3190476,30.8922359 42.752381,30.9208354 42.1857143,30.982801 C33.4714286,31.9647174 23.9952381,39.6198526 20.6190476,44.9293514 C18.6904762,47.9561327 15.647619,49.4580835 12.4761905,49.4580835" id="Fill-174" fill="#13191C"></path>
                    <path d="M39.6421338,40.1012776 C38.9992766,40.1012776 38.8468957,38.9191646 39.3373718,38.3281081 C39.8468957,37.7179853 41.3421338,36.7027027 43.6373718,36.7027027 C44.1659433,36.7027027 44.7373718,36.7551351 45.3468957,36.8790663 C48.3516576,37.4891892 47.8183242,39.4959214 46.8611814,39.500688 C46.7754671,39.500688 46.6849909,39.4816216 46.5945147,39.4482555 C45.7183242,39.1141179 44.6373718,38.7237346 43.4468957,38.7237346 C42.4230861,38.7237346 41.3183242,39.0144963 40.1945147,39.867715 C39.9849909,40.0297789 39.7992766,40.1012776 39.6421338,40.1012776" id="Fill-175" fill="#BDBCB8"></path>
                    <path d="M5.23809524,28.3135135 C6.6,22.603145 12.752381,7.93636364 40.2904762,4.71891892 C42.7952381,4.42339066 45.1666667,4.28992629 47.3952381,4.28992629 C72.0428571,4.28992629 80.2761905,20.6965111 80.6380952,21.4496314 C74.8714286,11.6590663 61.4714286,5.36717445 46.8714286,5.36717445 C45.6,5.36717445 44.3190476,5.41484029 43.0285714,5.51446192 C23.2619048,7.01164619 9.52380952,14.5762162 5.23809524,28.3135135" id="Fill-176" fill="#1F3A21"></path>
                    <path d="M4.76190476,29.0380344 C4.76190476,29.0380344 4.8047619,28.1752826 5.14285714,26.7596069 C9.42857143,13.0223096 23.1666667,5.45773956 42.9333333,3.96055528 C44.2238095,3.86093366 45.5047619,3.81326781 46.7761905,3.81326781 C61.3761905,3.81326781 74.7761905,10.1051597 80.5428571,19.8957248 C80.552381,19.9100246 80.5571429,19.9195577 80.5571429,19.9195577 C80.5571429,19.9195577 71.2190476,5.82953317 47.3190476,5.82953317 C45.5952381,5.82953317 43.8,5.90579853 41.9238095,6.06309582 C12.0857143,8.55601966 4.76190476,29.0380344 4.76190476,29.0380344" id="Fill-177" fill="#C7C7C2"></path>
                </g>
                <g id="glass" transform="translate(81.428571, 38.132678)" sketch:type="MSShapeGroup">
                    <path d="M91.8825071,31.0313031 C87.8179402,31.0313031 83.4496987,30.6232165 78.4507486,29.6394603 C75.287194,28.9139359 72.0769203,26.1978189 71.8333132,23.7723798 C71.6531108,22.3243416 71.5162904,20.849209 71.4295262,19.3506617 C71.3994925,18.3404802 71.3958217,17.3199293 71.4161779,16.2933575 L71.3194025,16.2933575 C71.29938,14.567352 71.3527733,12.8145868 71.4895937,11.0450968 C71.7265266,8.32563473 74.1726083,5.97411957 76.7054542,5.85370059 C84.3106661,5.47571878 92.27962,5.10777189 100.16181,4.79334454 L92.0660467,31.0313031 L91.8825071,31.0313031 M35.1687838,31.0313031 C30.7838569,31.0313031 26.7526608,30.5563171 22.6647343,29.8170783 L30.343362,4.93383335 C37.0876065,5.21481098 43.8485363,5.52890383 50.3424996,5.85370059 C52.8786826,5.97411957 55.3214272,8.32563473 55.5616972,11.0450968 C55.6981839,12.8145868 55.7485738,14.567352 55.7285513,16.2933575 L55.635113,16.2933575 C55.6548018,17.3199293 55.6484613,18.3404802 55.6217647,19.3536721 C55.5316634,20.849209 55.3948431,22.3243416 55.217644,23.7723798 C54.9743706,26.1978189 51.7637632,28.9139359 48.5972053,29.6394603 C43.5982551,30.6232165 39.2333507,31.0313031 35.1687838,31.0313031 M96.3041419,30.8707444 L104.399905,4.62944092 C104.963872,4.60937109 105.521165,4.58930126 106.081795,4.56588646 L98.2062791,30.7065063 C97.5755705,30.7703953 96.9415247,30.8239148 96.3041419,30.8707444 M101.303092,30.3221691 L108.82154,5.3787146 C108.914978,5.06763223 108.898293,4.75320488 108.794843,4.47222725 C110.006204,4.42874262 111.210891,4.38860296 112.408904,4.3484633 L112.552398,4.3484633 C115.061885,4.3484633 117.72154,6.2082676 118.262147,8.6835467 C119.103092,12.7577223 119.296643,17.0827708 118.675945,21.6653821 C118.285507,24.461444 115.405604,27.3816044 112.922815,28.0141385 C108.868259,28.9440407 105.107366,29.7702487 101.303092,30.3221691 M18.7169653,29.0376999 C17.215278,28.7165826 15.6935682,28.3753955 14.1251393,28.0141385 C11.6456867,27.3816044 8.76578418,24.461444 8.37534549,21.6653821 C7.75131099,17.0827708 7.94819888,12.7577223 8.78580668,8.6835467 C9.3264141,6.2082676 11.9860691,4.3484633 14.4988925,4.3484633 L14.63905,4.3484633 C18.4333132,4.47222725 22.3076664,4.61271607 26.2053792,4.76658477 L18.7169653,29.0376999" id="Fill-926" fill="#D8EBEF"></path>
                    <path d="M94.0790401,32.9680417 C93.995613,32.9680417 93.9088489,32.9646968 93.8254218,32.9580068 C92.6974878,32.8610026 91.980015,32.1418337 92.223622,31.3524204 L92.2836895,31.1651019 C93.7283127,31.1614225 95.1368954,31.1048925 96.5217848,31.0045433 L96.3082115,31.7002974 C96.0812898,32.4328462 95.1135358,32.9680417 94.0790401,32.9680417 M99.4517435,32.7205138 C99.4213761,32.7138239 99.388339,32.703789 99.3549681,32.693754 C98.6007874,32.466296 98.1736408,31.6668477 98.4005624,30.9105496 L98.423922,30.8403052 C99.4617548,30.7336006 100.492913,30.6064917 101.520735,30.4559679 L101.133633,31.7370921 C101.016835,32.1284538 100.746532,32.4328462 100.409486,32.6034398 C100.089126,32.6435795 99.7721035,32.6837191 99.4517435,32.7205138 M22.2883765,31.8407862 C20.9869141,31.5999483 19.6821147,31.3356955 18.3539558,31.0480279 L18.9346082,29.1714988 C20.2627672,29.4524764 21.5775778,29.7167292 22.8823772,29.9508772 L22.3417698,31.7002974 C22.3284214,31.750472 22.308399,31.7973016 22.2883765,31.8407862 M30.5610049,5.06763223 C29.1794526,5.01076771 27.7979003,4.95390319 26.4230221,4.90038364 L26.7166854,3.94372171 C26.943607,3.2111729 27.9113611,2.67597741 28.9458568,2.67597741 C29.0292838,2.67597741 29.116048,2.67898789 29.1994751,2.6893573 C30.3274091,2.78301651 31.0415448,3.50218544 30.7979378,4.29494375 L30.5610049,5.06763223 M100.379453,4.92714341 L100.683127,3.94372171 C100.906712,3.2111729 101.874466,2.67597741 102.908961,2.67597741 C102.995726,2.67597741 103.079153,2.67898789 103.165917,2.6893573 C104.29018,2.78301651 105.007987,3.50218544 104.764379,4.29494375 L104.617548,4.76323979 C103.209299,4.81675934 101.794376,4.87027889 100.379453,4.92714341 M106.299438,4.69968533 L106.306112,4.68597095 C106.489651,4.06715117 107.056955,3.66608906 107.670979,3.66608906 C107.807799,3.66608906 107.947957,3.68615889 108.084777,3.72964352 C108.528609,3.86344239 108.862317,4.19793957 109.012486,4.60602612 C108.111474,4.63613087 107.207124,4.66958059 106.299438,4.69968533" id="Fill-927" fill="#FCFBFB"></path>
                    <path d="M92.0367454,30.9075391 L100.132508,4.66958059 C101.547432,4.61271607 102.962355,4.55919652 104.370604,4.50567697 L96.2748406,30.7469805 C94.8899513,30.8473296 93.4813686,30.9038596 92.0367454,30.9075391 M98.1769779,30.5827424 L106.052493,4.44212251 C106.96018,4.41201776 107.864529,4.37856804 108.765542,4.3484633 C108.868991,4.62944092 108.885677,4.94386827 108.792238,5.25495064 L101.273791,30.1984051 C100.245969,30.3489288 99.2148106,30.4760378 98.1769779,30.5827424 M22.6354331,29.6933144 C21.3306337,29.4591663 20.015823,29.1949136 18.687664,28.9139359 L26.176078,4.64282081 C27.5509561,4.69634036 28.9325084,4.75320488 30.3140607,4.8100694 L22.6354331,29.6933144" id="Fill-928" fill="#EFF7F8"></path>
                    <path d="M91.3437786,37.8951851 C86.3481656,37.8951851 80.9787992,37.3499547 74.8352297,36.0320359 C70.9441911,35.0619941 66.9997591,31.4226648 66.6994217,28.1780422 C66.2686043,24.3614294 66.0386793,20.4177077 66.0787243,16.3903617 L71.4480906,16.3903617 C71.4614389,17.4169335 71.4981468,18.4374844 71.5582143,19.4476658 C71.6182818,21.6252425 71.7918101,23.7660244 72.0487655,25.8532868 C72.2923725,28.2783913 75.5026463,30.9945084 78.6662008,31.7203673 C83.6651509,32.703789 88.0333924,33.1118755 92.0979593,33.1118755 C94.6107827,33.1118755 97.0064745,32.9546618 99.3627887,32.6837191 C99.4695754,32.7071339 99.576362,32.7201793 99.6798116,32.7201793 C99.9033962,32.7201793 100.123644,32.6669943 100.320532,32.5666451 C104.535267,32.0247597 108.659902,31.1216173 113.138267,30.094711 C115.621056,29.4625113 118.500959,26.542351 118.891398,23.7426096 C119.235117,21.2138109 119.321881,18.7652916 119.195072,16.3903617 L124.677899,16.3903617 C124.778012,19.2937971 124.654206,22.277512 124.270775,25.351541 C123.790235,29.0979094 120.252927,33.0115264 117.202834,33.8544592 C108.21607,36.1056252 100.39061,37.8951851 91.3437786,37.8951851" id="Fill-929" fill="#BDBCB8"></path>
                    <path id="Fill-930" fill="#A8B6B7" d="M71.523697,19.4476658 C71.4636295,18.4374844 71.4269216,17.4169335 71.4135733,16.3903617 L71.5103487,16.3903617 C71.4899925,17.4169335 71.4936633,18.4374844 71.523697,19.4476658"></path>
                    <path id="Fill-931" fill="#C2C2BD" d="M99.7620922,32.5997603 C99.6586427,32.5997603 99.551856,32.5867149 99.4450694,32.5633001 C99.7654293,32.5265055 100.082452,32.4863658 100.402812,32.4462261 C100.205924,32.5465753 99.9856768,32.5997603 99.7620922,32.5997603"></path>
                    <path d="M36.0386371,37.8951851 C26.9918054,37.8951851 19.1663461,36.1056252 10.1795819,33.8544592 C7.12948821,33.0115264 3.58884329,29.0979094 3.10830336,25.351541 C2.72787591,22.277512 2.60440384,19.2937971 2.70117925,16.3903617 L8.18734348,16.3903617 C8.06053433,18.7652916 8.14729848,21.2138109 8.49101802,23.7426096 C8.88145671,26.542351 11.7613592,29.4625113 14.2408118,30.094711 C15.6357124,30.4158283 16.9972422,30.7235657 18.3387496,31.0112332 L18.2453112,31.3156257 C18.0017042,32.105039 18.7158399,32.8242079 19.8437739,32.9212121 C19.9305381,32.9279021 20.0139651,32.931247 20.1007293,32.931247 C21.0684833,32.931247 21.9761699,32.462951 22.2731702,31.8039916 C26.5346251,32.5967499 30.719327,33.1118755 35.2844563,33.1118755 C39.3490233,33.1118755 43.7139277,32.703789 48.7125441,31.7203673 C51.8797694,30.9945084 55.0900431,28.2783913 55.3336502,25.8532868 C55.5906056,23.7660244 55.7607968,21.6285874 55.8242014,19.4506763 C55.8842689,18.4374844 55.9206431,17.420613 55.930988,16.3903617 L61.3036914,16.3903617 C61.3437364,20.4177077 61.1101406,24.3614294 60.6796569,28.1780422 C60.3826566,31.4226648 56.4348875,35.0619941 52.547186,36.0320359 C46.4036164,37.3499547 41.0342501,37.8951851 36.0386371,37.8951851" id="Fill-932" fill="#BDBCB8"></path>
                    <path id="Fill-933" fill="#A8B6B7" d="M55.7292838,19.4506763 C55.7559805,18.4374844 55.762321,17.4169335 55.7426322,16.3903617 L55.8360705,16.3903617 C55.8257255,17.420613 55.7893513,18.4374844 55.7292838,19.4506763"></path>
                    <path d="M19.9233219,33.0282512 C19.8365578,33.0282512 19.7531307,33.0249062 19.6663665,33.0182163 C18.5384325,32.9212121 17.8242968,32.2020432 18.0679038,31.4126299 L18.1613422,31.1082374 C19.4895011,31.395905 20.7943005,31.6601578 22.0957629,31.9009957 C21.7987625,32.5599552 20.8910759,33.0282512 19.9233219,33.0282512" id="Fill-934" fill="#C2C2BD"></path>
                    <path d="M118.31961,8.60580353 C117.768991,6.08369482 115.019235,4.20047571 112.466367,4.27072012 C100.793251,4.64870193 88.3526059,5.20062227 76.7662542,5.77595742 C74.2300712,5.8963764 71.7873266,8.24789155 71.5470566,10.9706986 C71.2100112,15.3459216 71.3902137,19.6174506 71.8907762,23.6983161 C72.1343832,26.1197412 75.3446569,28.8361928 78.5082115,29.5620516 C92.5606674,32.3249983 101.630859,30.5421284 112.980277,27.9363954 C115.463067,27.3041957 118.34297,24.3840354 118.733408,21.587639 C119.354106,17.0050276 119.160555,12.6799791 118.31961,8.60580353 L118.31961,8.60580353 Z M55.4456318,10.9706986 C55.2053618,8.24789155 52.7626172,5.8963764 50.2264342,5.77595742 C38.6367454,5.20062227 26.1994376,4.64870193 14.5229846,4.27072012 C11.9734533,4.20047571 9.22035996,6.08369482 8.66974128,8.60580353 C7.83213348,12.6799791 7.63858268,17.0050276 8.25928009,21.587639 C8.64971879,24.3840354 11.5296213,27.3041957 14.0090739,27.9363954 C25.3618298,30.5421284 34.432021,32.3249983 48.4808061,29.5620516 C51.6480315,28.8361928 54.8583052,26.1197412 55.1019123,23.6983161 C55.6024747,19.6174506 55.7826772,15.3459216 55.4456318,10.9706986 L55.4456318,10.9706986 Z M124.292988,10.686376 C124.683427,14.6869622 124.653393,18.851452 124.112786,23.1932254 C123.632246,26.9426043 120.094938,30.8532107 117.044844,31.6994886 C103.092501,35.1882942 91.9466442,37.576604 74.6772403,33.8770652 C70.7862017,32.9036784 66.8417698,29.2643492 66.5414323,26.0197265 C66.044207,21.5976739 65.8106112,17.0083726 65.9574428,12.3120322 C65.603712,11.3319555 64.7827897,10.9068096 63.4946757,10.8837293 C62.2065617,10.9068096 61.3856393,11.3319555 61.0352456,12.3120322 C61.1820772,17.0083726 60.9484814,21.5976739 60.447919,26.0197265 C60.1509186,29.2643492 56.2031496,32.9036784 52.3154481,33.8770652 C35.0460442,37.576604 23.8968504,35.1882942 9.94784402,31.6994886 C6.89775028,30.8532107 3.35710536,26.9426043 2.87656543,23.1932254 C2.33595801,18.851452 2.30926134,14.6869622 2.69636295,10.686376 C1.15796775,10.3719486 0,9.00720014 0,7.37150895 L0,6.68578974 C0,4.81929549 1.51169854,3.30402328 3.37712786,3.30402328 C3.72084739,3.30402328 4.0512186,3.35754283 4.3615673,3.45086754 C5.74645669,1.32714497 8.23258343,-0.0677082596 10.5785527,0.00253614746 C24.9246719,0.507626884 40.2151856,1.24686564 54.4578553,2.01620915 C55.976228,2.09648847 57.4612298,2.88590181 58.6258718,4.09343662 L58.6625797,4.12688633 C59.9607049,5.42808035 62.5599588,5.14710272 63.3712036,5.02333877 L63.3712036,4.97985414 C63.3712036,4.97985414 63.4179228,4.98988905 63.4946757,5.00326894 C63.5747657,4.98988905 63.6181477,4.97985414 63.6181477,4.97985414 L63.6181477,5.02333877 C64.4287252,5.14710272 67.0319835,5.42808035 68.3301087,4.12688633 L68.3668166,4.09343662 C69.5314586,2.88590181 71.0164604,2.09648847 72.5348331,2.01620915 C86.7775028,1.24686564 102.064679,0.507626884 116.410799,0.00253614746 C118.759771,-0.0677082596 121.246232,1.32714497 122.631121,3.45086754 C122.94147,3.35754283 123.271841,3.30402328 123.615561,3.30402328 C125.477653,3.30402328 126.989351,4.81929549 126.989351,6.68578974 L126.989351,7.37150895 C126.989351,9.00720014 125.834721,10.3719486 124.292988,10.686376 L124.292988,10.686376 Z" id="Fill-935" fill="#252525"></path>
                </g>
            </g>
        </g>
    </g>
</svg>